HIERARCHY
ROOT Hips
{
	OFFSET 190.886993 90.533302 318.949097
	CHANNELS 6 Xposition Yposition Zposition Zrotation Yrotation Xrotation 
	JOINT LeftUpLeg
	{
		OFFSET 0.103459 1.857839 10.548500
		CHANNELS 3 Zrotation Yrotation Xrotation
		JOINT LeftLeg
		{
			OFFSET 43.500004 -0.000053 -0.000011
			CHANNELS 3 Zrotation Yrotation Xrotation
			JOINT LeftFoot
			{
				OFFSET 42.372192 0.000015 -0.000008
				CHANNELS 3 Zrotation Yrotation Xrotation
				JOINT LeftToe
				{
					OFFSET 17.300007 0.000002 0.000013
					CHANNELS 3 Zrotation Yrotation Xrotation
					End Site
					{
						OFFSET 0.000000 0.000000 0.000000
					}
				}
			}
		}
	}
	JOINT RightUpLeg
	{
		OFFSET 0.103460 1.857826 -10.548500
		CHANNELS 3 Zrotation Yrotation Xrotation
		JOINT RightLeg
		{
			OFFSET 43.500046 -0.000019 0.000011
			CHANNELS 3 Zrotation Yrotation Xrotation
			JOINT RightFoot
			{
				OFFSET 42.372261 0.000004 0.000012
				CHANNELS 3 Zrotation Yrotation Xrotation
				JOINT RightToe
				{
					OFFSET 17.299995 -0.000004 0.000006
					CHANNELS 3 Zrotation Yrotation Xrotation
					End Site
					{
						OFFSET 0.000000 0.000000 0.000000
					}
				}
			}
		}
	}
	JOINT Spine
	{
		OFFSET 6.901963 -2.603745 -0.000005
		CHANNELS 3 Zrotation Yrotation Xrotation
		JOINT Spine1
		{
			OFFSET 12.588102 0.000012 0.000012
			CHANNELS 3 Zrotation Yrotation Xrotation
			JOINT Spine2
			{
				OFFSET 12.343202 0.000010 -0.000009
				CHANNELS 3 Zrotation Yrotation Xrotation
				JOINT Neck
				{
					OFFSET 25.832901 -0.000008 0.000006
					CHANNELS 3 Zrotation Yrotation Xrotation
					JOINT Head
					{
						OFFSET 11.766603 0.000007 -0.000001
						CHANNELS 3 Zrotation Yrotation Xrotation
						End Site
						{
							OFFSET 0.000000 0.000000 0.000000
						}
					}
				}
				JOINT LeftShoulder
				{
					OFFSET 19.745903 -1.480391 6.000108
					CHANNELS 3 Zrotation Yrotation Xrotation
					JOINT LeftArm
					{
						OFFSET 11.284125 -0.000031 -0.000021
						CHANNELS 3 Zrotation Yrotation Xrotation
						JOINT LeftForeArm
						{
							OFFSET 33.000046 0.000024 0.000034
							CHANNELS 3 Zrotation Yrotation Xrotation
							JOINT LeftHand
							{
								OFFSET 25.200014 0.000020 0.000007
								CHANNELS 3 Zrotation Yrotation Xrotation
								End Site
								{
									OFFSET 0.000000 0.000000 0.000000
								}
							}
						}
					}
				}
				JOINT RightShoulder
				{
					OFFSET 19.746098 -1.480371 -6.000075
					CHANNELS 3 Zrotation Yrotation Xrotation
					JOINT RightArm
					{
						OFFSET 11.284128 -0.000021 -0.000009
						CHANNELS 3 Zrotation Yrotation Xrotation
						JOINT RightForeArm
						{
							OFFSET 33.000095 0.000034 0.000006
							CHANNELS 3 Zrotation Yrotation Xrotation
							JOINT RightHand
							{
								OFFSET 25.199781 0.000147 0.000427
								CHANNELS 3 Zrotation Yrotation Xrotation
								End Site
								{
									OFFSET 0.000000 0.000000 0.000000
								}
							}
						}
					}
				}
			}
		}
	}
}
MOTION
Frames: 11
Frame Time: 0.033333
190.886993 90.533302 318.949097 90.421733 -0.622828 81.031657 172.223220 -6.040806 164.955311 -24.011697 2.444295 -4.851194 84.721666 1.610597 -8.271131 21.454551 0.003090 -0.000001 170.650077 8.527894 -171.761772 -19.111914 -3.620517 3.475679 83.038496 0.000463 10.957809 21.454558 -0.003116 -0.000018 5.591228 -0.000816 0.199038 1.169624 -0.003544 0.398064 0.851519 -0.001015 0.398088 10.966729 2.320371 -0.797608 -26.138260 -4.300189 1.405093 -79.140978 -86.140905 -102.961946 5.389081 18.951214 -10.902407 -45.160432 -23.191262 2.153187 9.524520 -12.924177 13.478506 -152.481788 85.926525 29.302919 1.464631 -12.338468 10.445519 -39.451176 17.141941 -1.622383 8.258443 14.725647 -13.293771 
190.799393 90.513741 319.024506 90.399644 -0.537679 81.192460 172.307682 -6.096408 165.027069 -24.068781 2.456041 -4.791106 84.772476 1.566606 -8.300228 21.454555 0.003099 0.000001 170.766778 8.506201 -171.821250 -19.277297 -3.567635 3.590300 83.198958 -0.093681 10.970240 21.454560 -0.003111 -0.000017 5.589119 -0.009451 0.205673 1.165347 -0.020914 0.411238 0.847267 -0.018284 0.411355 10.933553 2.218438 -0.852464 -26.073387 -4.085413 1.233809 -79.771828 -85.982437 -102.345829 5.360473 18.970680 -11.046333 -45.239471 -23.204842 2.153182 9.538263 -12.928820 13.672019 -151.845583 85.867909 29.944734 1.486366 -12.302922 10.375766 -39.516736 17.186028 -1.622380 8.272304 14.717188 -13.321298 
190.638000 90.472313 319.169586 90.391980 -0.402619 81.483802 172.437865 -6.161099 165.226729 -24.179008 2.467458 -4.725238 84.870107 1.514552 -8.366014 21.454551 0.003093 -0.000000 170.922943 8.491505 -171.914236 -19.647251 -3.493210 3.784961 83.531192 -0.255717 11.005831 21.454560 -0.003101 -0.000015 5.573424 -0.034677 0.222806 1.133838 -0.071458 0.445269 0.815759 -0.068608 0.445693 10.906298 2.034121 -0.950115 -25.978119 -3.671125 0.914746 -80.565838 -85.732855 -101.574680 5.344464 18.988650 -11.227139 -45.311758 -23.214058 2.153179 9.507028 -12.911797 13.962478 -151.843220 85.795925 29.949007 1.642308 -12.232201 10.159078 -39.579440 17.240475 -1.622377 8.364804 14.762187 -13.216960 
190.472595 90.443680 319.291992 90.383299 -0.334584 81.739777 172.529704 -6.231799 165.555972 -24.217303 2.423875 -4.751421 84.915309 1.521735 -8.440417 21.454550 0.003096 -0.000000 171.029836 8.419013 -171.808955 -19.914030 -3.539552 3.871509 83.797911 -0.334446 11.037391 21.454557 -0.003094 -0.000016 5.544978 -0.058677 0.248206 1.076831 -0.119560 0.495897 0.758752 -0.116410 0.496589 10.869712 1.928599 -1.107567 -25.871677 -3.287137 0.556413 -80.867609 -85.653728 -101.280190 5.498597 19.038469 -11.259117 -45.274015 -23.220915 2.153187 9.365415 -12.983921 13.987866 -151.981053 85.735430 29.811754 1.782770 -12.278059 10.062831 -39.615756 17.268504 -1.622381 8.471053 14.813330 -13.121939 
190.304703 90.436951 319.394897 90.365698 -0.306868 81.994509 172.636023 -6.320493 165.800807 -24.119172 2.380579 -4.730533 84.881711 1.496684 -8.487155 21.454550 0.003100 -0.000001 171.162396 8.313507 -171.580909 -20.015446 -3.621104 3.902806 83.973003 -0.371304 11.039857 21.454560 -0.003116 -0.000017 5.515665 -0.077714 0.271542 1.018101 -0.157701 0.542455 0.700021 -0.154271 0.543383 10.736319 1.891800 -1.368899 -25.663942 -2.953249 0.118923 -81.132416 -85.609209 -101.019078 5.694359 19.165434 -11.252586 -45.231575 -23.248818 2.153187 9.224448 -13.039773 13.822969 -151.847318 85.689477 29.947658 1.879678 -12.437739 10.022991 -39.628819 17.292973 -1.622391 8.540371 14.701081 -13.040884 
190.137894 90.449043 319.474304 90.326315 -0.310333 82.271978 172.727684 -6.425788 166.019373 -23.943517 2.354283 -4.683581 84.792250 1.451994 -8.522357 21.454555 0.003079 -0.000000 171.333506 8.179997 -171.372547 -19.965806 -3.662449 3.966169 84.059323 -0.429180 11.013012 21.454557 -0.003106 -0.000016 5.494091 -0.088249 0.287891 0.974875 -0.178784 0.575101 0.656797 -0.175162 0.576165 10.432658 1.879443 -1.692820 -25.329065 -2.667309 -0.358369 -81.482681 -85.578930 -100.670964 5.922455 19.336312 -11.235174 -45.260368 -23.282629 2.153184 9.278065 -12.980763 13.582058 -151.328647 85.616797 30.471718 1.918364 -12.629872 10.034267 -39.600569 17.260402 -1.622383 8.438497 14.710049 -13.004989 
189.977600 90.482803 319.528290 90.253403 -0.338540 82.568688 172.806286 -6.548993 166.196439 -23.696522 2.363607 -4.606113 84.649560 1.383431 -8.550810 21.454557 0.003080 -0.000002 171.570541 8.022995 -171.345623 -19.732613 -3.578787 4.146008 84.032050 -0.566099 10.958812 21.454560 -0.003107 -0.000017 5.483036 -0.092216 0.300762 0.952755 -0.178406 0.600858 0.634675 -0.174643 0.601919 10.039876 1.837775 -2.050431 -25.007559 -2.402327 -0.860985 -82.080828 -85.526871 -100.076581 6.089572 19.493848 -11.167644 -45.306496 -23.289536 2.156727 9.361590 -13.056610 13.403195 -150.244819 85.521536 31.565692 1.910716 -12.827958 10.107419 -39.576852 17.180847 -1.616580 8.263510 14.774799 -13.106646 
189.822205 90.513199 319.561707 90.190469 -0.372770 82.858814 172.857608 -6.661892 166.327428 -23.459002 2.394276 -4.508663 84.500819 1.299909 -8.579664 21.454555 0.003090 0.000000 171.758221 7.867603 -171.316021 -19.543511 -3.520972 4.320849 84.008397 -0.697598 10.913205 21.454560 -0.003110 -0.000016 5.482137 -0.093749 0.313206 0.950938 -0.175352 0.625751 0.632863 -0.171431 0.626799 9.620266 1.734947 -2.393021 -24.742548 -2.141399 -1.350158 -82.986197 -85.456923 -99.175966 6.187351 19.593890 -11.126238 -45.361527 -23.206831 2.160673 9.352397 -13.213512 13.233416 -149.018226 85.405771 32.804169 1.884445 -12.968601 10.245139 -39.616303 17.089596 -1.611681 8.212520 14.733080 -13.140038 
189.675003 90.539436 319.578888 90.140083 -0.408416 83.140491 172.886595 -6.762784 166.437845 -23.239247 2.428208 -4.405062 84.353847 1.212347 -8.606469 21.454551 0.003092 -0.000001 171.898772 7.726818 -171.197927 -19.403835 -3.505848 4.439154 83.994101 -0.788967 10.869580 21.454558 -0.003109 -0.000018 5.488816 -0.094285 0.323498 0.964316 -0.172832 0.646341 0.646228 -0.168786 0.647376 9.219756 1.568493 -2.673804 -24.545209 -1.878850 -1.781361 -83.509096 -85.371620 -98.660088 6.140805 19.707179 -10.972783 -45.283338 -23.356873 2.163823 9.417316 -12.978172 13.102437 -148.060442 85.281332 33.772734 1.846960 -13.048439 10.432454 -39.665726 17.009548 -1.607090 8.225466 14.599593 -13.283385 
189.539398 90.558823 319.583313 90.112653 -0.448698 83.412934 172.885817 -6.843597 166.545666 -23.051622 2.452321 -4.305047 84.218630 1.129000 -8.628425 21.454551 0.003099 0.000000 171.976391 7.621000 -171.022527 -19.344884 -3.513488 4.514339 84.007632 -0.851537 10.828495 21.454557 -0.003105 -0.000018 5.498598 -0.094034 0.328509 0.983854 -0.174613 0.656321 0.665787 -0.170509 0.657368 8.905070 1.360547 -2.875583 -24.471603 -1.618377 -2.133656 -83.916537 -85.294931 -98.259019 6.074418 19.806778 -11.016588 -45.285568 -23.462197 2.165429 9.516072 -12.645251 13.115707 -148.254665 85.237325 33.578484 1.931854 -13.085599 10.550924 -39.691240 16.938511 -1.605018 8.243839 14.594221 -13.547625 
189.420105 90.570007 319.568512 90.111983 -0.519347 83.650911 172.816845 -6.905696 166.562127 -22.922391 2.495463 -4.173716 84.108186 1.026699 -8.642722 21.454553 0.003094 0.000000 171.948646 7.548595 -170.836965 -19.379195 -3.542606 4.558408 84.048941 -0.892696 10.794444 21.454557 -0.003107 -0.000019 5.501683 -0.093234 0.332101 0.990003 -0.183764 0.663484 0.671922 -0.179630 0.664573 8.709789 1.145525 -3.011282 -24.511599 -1.367262 -2.414524 -84.218261 -85.269646 -97.958901 6.071163 19.854142 -11.205782 -45.349598 -23.456401 2.166420 9.559832 -12.594138 13.319353 -149.651712 85.255459 32.170758 2.142042 -13.048438 10.488830 -39.679482 16.911349 -1.604232 8.286294 14.606841 -13.681061 
